<?xml version="1.0" standalone="no"?>
<!DOCTYPE svg PUBLIC "-//W3C//DTD SVG 20010904//EN"
 "http://www.w3.org/TR/2001/REC-SVG-20010904/DTD/svg10.dtd">
<svg version="1.0" xmlns="http://www.w3.org/2000/svg"
 width="172.000000pt" height="174.000000pt" viewBox="0 0 172.000000 174.000000"
 preserveAspectRatio="xMidYMid meet">

<g transform="translate(0.000000,174.000000) scale(0.100000,-0.100000)"
fill="#1D4153" stroke="none">
<path d="M0 876 l0 -866 469 0 c510 0 569 5 701 57 209 84 389 258 474 461 75
179 92 410 42 575 -93 309 -320 529 -629 609 -77 19 -114 21 -569 25 l-488 5
0 -866z m1050 780 c67 -19 196 -73 189 -80 -2 -2 -126 -49 -275 -105 l-271
-101 -264 146 c-145 81 -268 151 -274 156 -6 6 149 8 410 5 367 -3 428 -6 485
-21z m-715 -152 c145 -80 270 -151 279 -157 13 -10 -27 -36 -258 -164 -150
-84 -279 -153 -285 -153 -8 0 -11 89 -11 310 0 171 3 310 6 310 4 0 125 -66
269 -146z m1008 7 c93 -64 98 -37 -63 -325 -78 -140 -147 -262 -154 -271 -11
-15 -37 10 -202 190 -104 114 -190 211 -192 215 -2 4 28 20 65 34 254 96 489
184 496 185 5 1 27 -12 50 -28z m164 -168 c77 -111 132 -244 148 -360 6 -49 5
-52 -17 -58 -61 -14 -453 -75 -464 -73 -9 2 37 94 129 263 152 277 157 285
161 285 2 0 21 -26 43 -57z m-638 -270 c110 -119 199 -218 197 -220 -5 -5
-888 127 -910 135 -15 6 40 41 245 155 145 80 265 147 266 147 1 0 92 -98 202
-217z m-293 -208 c241 -36 440 -67 442 -70 5 -5 -17 -18 -212 -125 -93 -51
-174 -93 -180 -93 -9 0 -463 321 -495 349 -7 6 -19 8 445 -61z m-246 -156
c138 -100 250 -185 250 -189 0 -4 -104 -90 -232 -191 -128 -101 -242 -192
-255 -202 l-23 -18 0 390 c0 215 2 391 5 391 3 0 118 -82 255 -181z m1327 99
c-10 -107 -31 -181 -86 -293 -45 -90 -149 -235 -170 -235 -8 0 -250 502 -245
509 4 4 459 88 488 90 17 1 18 -5 13 -71z m-732 -382 c-86 -175 -157 -317
-159 -315 -9 10 -108 389 -104 400 5 15 412 250 416 240 1 -4 -68 -150 -153
-325z m319 55 c58 -124 106 -230 106 -237 0 -30 -184 -123 -300 -152 -90 -23
-240 -38 -240 -24 0 21 314 652 321 645 3 -5 54 -109 113 -232z m-624 -25 c0
-2 22 -88 50 -191 27 -104 48 -190 47 -191 -6 -6 -597 -9 -595 -2 4 9 481 387
491 387 4 1 7 -1 7 -3z"/>
</g>
</svg>
