<?xml version="1.0" encoding="utf-8"?>
<!-- Generator: Adobe Illustrator 25.4.1, SVG Export Plug-In . SVG Version: 6.00 Build 0)  -->
<svg version="1.1" id="Calque_1" xmlns="http://www.w3.org/2000/svg" xmlns:xlink="http://www.w3.org/1999/xlink" x="0px" y="0px"
	 viewBox="0 0 1899.93 507.91" style="enable-background:new 0 0 1899.93 507.91;" xml:space="preserve">
<style type="text/css">
	.st0{fill-rule:evenodd;clip-rule:evenodd;fill:#1E4254;}
	.st1{fill-rule:evenodd;clip-rule:evenodd;fill:#1D4153;}
	.st2{fill:#1D4153;}
</style>
<g>
	<g>
		<path class="st0" d="M1400.2,161.14c-53.62,0-97.25,41.64-97.25,92.82c0,51.17,43.64,92.8,97.25,92.8
			c53.62,0,97.25-41.63,97.25-92.8C1497.45,202.77,1453.82,161.14,1400.2,161.14z M1400.19,371.19
			c-67.73,0-122.84-52.59-122.84-117.23s55.11-117.24,122.84-117.24c67.73,0,122.84,52.6,122.84,117.24
			S1467.91,371.19,1400.19,371.19z M748.68,343.93h-62.49V164.88h62.49c51.72,0,93.8,40.16,93.8,89.52
			C842.48,303.77,800.4,343.93,748.68,343.93z M660.58,368.34h88.08c65.82,0,119.38-51.12,119.38-113.94
			c0-62.83-53.56-113.94-119.38-113.94h-88.08V368.34z M1112.71,343.93h-62.49V164.88h62.49c51.72,0,93.8,40.16,93.8,89.52
			C1206.51,303.77,1164.44,343.93,1112.71,343.93z M1024.62,368.34h88.08c65.82,0,119.39-51.12,119.39-113.94
			c0-62.83-53.57-113.94-119.39-113.94h-88.08V368.34z M953.32,366.14h-25.59V142.06h25.59V366.14z M1874.35,366.14h25.59V142.06
			h-25.59V366.14z M1778.39,366.14h25.59V143.07h-23.36l-91,119.84l-88.59-119.84h-23.22v223.07h25.59V189.42l86.21,115.58
			l88.79-123.28V366.14z"/>
	</g>
	<g>
		<path class="st1" d="M402.46,421.94L334.54,278.1l139.6-21.16C473.32,321.99,445.88,380.48,402.46,421.94L402.46,421.94z
			 M236.76,484.54l81.77-188.48l66.52,140.89c-38.14,29.71-85.64,47.59-137.27,47.59H236.76z M349.72,48.32L197,108.34L52.98,23.37
			h194.81C284.47,23.37,319.03,32.49,349.72,48.32L349.72,48.32z M421.08,105.76c29.27,35.4,48.19,79.85,52.24,128.59l-134.53,20.4
			L421.08,105.76z M192.46,361.68l101.14-63.79l-71.7,165.32L192.46,361.68z M173.63,376.01l31.47,108.53H42.94L173.63,376.01z
			 M22.96,247.86l138.85,109.06L22.96,472.13V247.86z M316.3,249.55L214.39,125.58l159.85-62.83c11.1,7.63,21.4,16.34,30.99,25.79
			L316.3,249.55z M291.2,254L45.99,218.58l147.45-83.5L291.2,254z M180.18,342.99L51.76,242.1L286.4,276L180.18,342.99z
			 M173.69,120.56L22.96,205.91V31.62L173.69,120.56z M247.78,0.9H0.91V507h246.88c137.06,0,248.57-113.51,248.57-253.05
			S384.84,0.9,247.78,0.9L247.78,0.9z"/>
		<path class="st2" d="M247.79,507.91H0V0h247.79c137.56,0,249.47,113.92,249.47,253.95C497.26,393.99,385.35,507.91,247.79,507.91z
			 M1.81,506.1h245.98c136.56,0,247.66-113.11,247.66-252.15c0-139.03-111.1-252.14-247.66-252.14H1.81V506.1z M247.78,485.44h-12.4
			l0.55-1.27l82.57-190.31l67.69,143.36l-0.57,0.45C345.47,468.93,297.81,485.44,247.78,485.44z M238.14,483.63h9.64
			c49.39,0,96.45-16.23,136.14-46.95l-65.36-138.42L238.14,483.63z M206.3,485.44H40.43l133.68-111.01L206.3,485.44z M45.45,483.63
			h158.43L173.14,377.6L45.45,483.63z M22.06,474.06V246l1.47,1.15l139.72,109.75l-0.86,0.72L22.06,474.06z M23.87,249.73v220.48
			l136.5-113.26L23.87,249.73z M221.73,465.88l-30.33-104.6l104.2-65.71l-1.17,2.7L221.73,465.88z M193.52,362.09l28.55,98.46
			l69.53-160.32L193.52,362.09z M402.18,423.46L333.2,277.38l1.2-0.18l140.66-21.32l-0.02,1.07
			c-0.8,63.27-26.35,122.09-71.96,165.65L402.18,423.46z M335.88,278.82l66.86,141.6c44.43-42.88,69.42-100.47,70.48-162.42
			L335.88,278.82z M180.12,344.1l-0.5-0.4L48.54,240.73l240.43,34.73L180.12,344.1z M54.99,243.48l125.25,98.41l103.61-65.35
			L54.99,243.48z M337.1,255.91l0.89-1.61l82.93-150.15l0.85,1.03c30.34,36.7,48.48,81.34,52.44,129.09l0.07,0.84l-0.84,0.12
			L337.1,255.91z M421.22,107.36l-80.76,146.21l131.88-20C468.31,186.96,450.64,143.37,421.22,107.36z M293.38,255.23l-2.32-0.34
			L43.23,219.1l2.31-1.3l148.12-83.88l0.48,0.59L293.38,255.23z M48.74,218.07l240.27,34.7l-95.79-116.52L48.74,218.07z
			 M316.45,251.16l-0.84-1.03L212.9,125.19l1.16-0.46l160.31-63.01l0.4,0.28c10.62,7.3,21.09,16.01,31.11,25.89l0.49,0.48l-0.33,0.6
			L316.45,251.16z M215.88,125.96l100.27,121.98L404.11,88.7c-9.68-9.49-19.76-17.87-29.98-24.93L215.88,125.96z M22.06,207.47
			V30.04l1.36,0.81l152.08,89.73l-1.36,0.77L22.06,207.47z M23.87,33.21v171.14l148.01-83.81L23.87,33.21z M196.92,109.34
			l-0.38-0.22L49.66,22.47h198.13c35.69,0,70.12,8.43,102.35,25.05l1.77,0.92l-1.86,0.73L196.92,109.34z M56.3,24.28l140.78,83.06
			l150.44-59.13c-31.45-15.88-65-23.93-99.73-23.93H56.3z"/>
	</g>
</g>
</svg>
